<?xml version="1.0" standalone="no"?>
<!DOCTYPE svg PUBLIC "-//W3C//DTD SVG 20010904//EN"
 "http://www.w3.org/TR/2001/REC-SVG-20010904/DTD/svg10.dtd">
<svg class="icon" version="1.0" xmlns="http://www.w3.org/2000/svg"
 width="332.000000pt" height="332.000000pt" viewBox="0 0 332.000000 332.000000"
 preserveAspectRatio="xMidYMid meet">
<style>
    .icon {
        background-color: #fff;
    }
</style>
<metadata>
Created by potrace 1.14, written by Peter Selinger 2001-2017
</metadata>
<g transform="translate(0.000000,332.000000) scale(0.100000,-0.100000)"
fill="#436372" stroke="none">
<path d="M296 2149 c4 -7 44 0 44 7 0 2 -11 3 -24 2 -14 -1 -23 -5 -20 -9z"/>
<path d="M330 2144 c-14 -8 -30 -12 -37 -9 -6 2 -13 0 -15 -6 -2 -5 -16 -12
-31 -15 -21 -3 -27 -1 -21 7 4 8 3 9 -5 5 -6 -4 -9 -12 -6 -17 4 -5 -1 -9 -9
-9 -9 0 -16 -5 -16 -11 0 -6 -7 -9 -14 -6 -10 4 -13 1 -10 -7 3 -8 1 -17 -5
-21 -6 -3 -11 0 -12 7 -1 7 -4 2 -8 -12 -4 -14 -14 -24 -23 -24 -8 1 -15 -6
-14 -15 0 -9 -5 -15 -13 -13 -12 3 -12 1 -1 -13 11 -14 10 -17 -9 -22 -17 -4
-19 -8 -9 -14 10 -7 10 -9 1 -9 -7 0 -13 -7 -13 -16 0 -9 -5 -12 -12 -8 -7 4
-4 -3 6 -15 16 -17 17 -21 4 -16 -13 5 -15 2 -11 -16 4 -14 2 -20 -4 -16 -14
9 -11 -25 2 -35 6 -5 5 -8 -3 -8 -9 0 -10 -5 -3 -18 7 -13 6 -23 -1 -30 -9 -9
-9 -12 1 -12 7 0 9 -5 6 -10 -4 -6 -11 -8 -16 -5 -14 9 -11 -2 7 -19 14 -15
14 -16 -3 -16 -17 -1 -17 -1 0 -11 15 -9 16 -13 5 -26 -15 -19 -15 -23 4 -34
7 -5 8 -9 2 -9 -6 0 -10 -10 -8 -22 1 -13 3 -23 4 -23 1 0 3 -14 4 -32 1 -18
-1 -30 -4 -28 -4 2 -7 -2 -7 -10 0 -8 5 -11 10 -8 6 4 7 1 1 -8 -12 -20 -14
-40 -3 -33 5 3 9 0 9 -6 0 -6 4 -9 8 -6 5 3 9 -1 9 -9 0 -11 -4 -12 -13 -4 -8
7 -14 6 -20 -2 -4 -7 -3 -10 2 -7 5 3 18 -4 29 -15 15 -15 16 -19 4 -14 -9 3
-16 0 -16 -9 0 -7 4 -11 8 -9 3 3 13 -3 20 -12 8 -9 9 -14 3 -10 -6 3 -11 0
-11 -8 0 -8 5 -13 11 -12 6 1 10 -4 9 -10 -3 -12 9 -17 29 -14 7 1 12 -23 9
-42 -1 -5 3 -6 9 -2 5 3 10 1 10 -4 0 -6 7 -11 16 -11 8 0 13 -4 10 -8 -2 -4
5 -14 17 -22 21 -12 21 -12 7 5 -15 18 -14 18 12 1 28 -18 40 -34 16 -20 -10
5 -10 3 0 -7 11 -12 14 -12 22 1 7 10 10 11 10 3 0 -7 11 -13 24 -13 14 0 28
-4 31 -10 3 -5 0 -7 -8 -4 -8 3 -18 1 -21 -4 -3 -5 68 -9 169 -10 96 0 175 3
175 8 0 4 -5 10 -12 12 -7 3 -5 7 6 11 10 4 15 3 11 -3 -3 -6 -1 -10 4 -10 6
0 11 5 11 11 0 5 4 8 9 4 5 -3 13 0 17 6 4 8 9 7 15 -2 7 -11 9 -10 9 4 0 9 5
17 11 17 5 0 7 -5 3 -12 -5 -7 -3 -8 5 -4 7 5 10 15 6 23 -5 14 -3 14 12 2 10
-7 15 -9 10 -4 -8 10 31 55 47 55 6 0 0 -10 -14 -21 -24 -20 -9 -16 18 4 10 8
10 13 0 25 -8 10 -9 13 -2 9 7 -4 15 0 18 9 3 8 10 13 15 10 5 -3 15 2 22 12
13 15 12 16 -3 3 -12 -9 -18 -10 -18 -2 0 6 6 14 14 17 8 3 17 17 20 30 4 14
11 22 16 19 6 -3 10 -1 10 4 0 6 -5 11 -11 11 -8 0 -7 6 2 17 12 15 12 16 -1
8 -8 -4 -6 1 6 13 13 13 20 30 19 49 -4 39 -4 40 -15 23 -6 -9 -10 -10 -10 -3
0 6 5 15 10 18 6 4 7 11 4 17 -4 7 -2 8 4 4 7 -4 12 -3 12 3 0 5 -6 12 -12 15
-7 4 -3 4 10 2 12 -2 20 0 16 5 -3 5 -13 9 -22 9 -15 0 -15 2 -2 10 12 8 12
10 -5 11 -11 0 -14 3 -7 6 6 2 9 10 5 16 -4 7 2 5 12 -3 12 -10 16 -10 11 -2
-4 7 -2 21 5 30 11 14 11 15 -1 5 -21 -19 -35 -16 -19 4 12 15 12 16 -4 10
-16 -6 -16 -5 -1 18 15 22 15 25 1 31 -9 3 -20 3 -26 0 -5 -4 -13 -1 -17 5 -5
8 -3 9 6 4 8 -5 11 -4 7 2 -4 6 -16 13 -27 16 -18 5 -19 3 -8 -11 10 -12 10
-14 1 -8 -8 4 -13 2 -14 -6 0 -7 -4 -4 -9 7 -6 14 -9 16 -10 5 -1 -8 -6 -4
-10 10 l-8 25 -1 -24 c-1 -24 -1 -24 -16 -5 -13 18 -14 18 -9 -6 2 -14 2 -19
-2 -12 -3 6 -11 9 -16 6 -6 -4 -8 -2 -5 3 4 6 0 14 -8 17 -10 4 -19 -2 -25
-17 -6 -16 -9 -17 -9 -5 -1 22 -17 32 -27 17 -5 -8 -3 -10 7 -4 8 5 7 1 -3
-10 -14 -15 -20 -16 -32 -6 -10 8 -16 9 -21 1 -3 -6 -11 -8 -16 -4 -5 3 -6 11
-2 17 4 7 -2 5 -12 -3 -17 -13 -18 -13 -13 1 5 13 2 16 -13 12 -10 -3 -19 -10
-19 -15 0 -5 5 -6 12 -2 7 4 8 3 4 -5 -6 -9 -11 -9 -22 0 -8 6 -14 8 -14 3 0
-5 -5 -2 -10 6 -8 13 -10 12 -10 -2 0 -10 -4 -18 -10 -18 -5 0 -7 8 -3 18 3 9
3 14 -1 11 -4 -4 -9 -16 -11 -28 -3 -15 0 -19 8 -15 7 4 3 -3 -8 -16 -11 -13
-15 -20 -9 -17 7 4 14 0 18 -8 3 -8 0 -15 -7 -15 -8 0 -6 -4 3 -10 11 -7 11
-10 2 -10 -10 0 -10 -3 -1 -13 7 -7 25 -12 41 -11 20 1 28 -3 28 -14 1 -15 2
-15 11 1 6 9 15 15 20 12 5 -4 7 -10 5 -14 -3 -4 1 -8 9 -8 8 0 12 4 9 9 -5 8
-1 9 34 11 9 1 32 -14 49 -32 27 -26 29 -31 12 -26 -16 5 -19 4 -14 -5 4 -7 1
-16 -6 -21 -10 -6 -7 -9 11 -9 25 -1 25 -1 3 -10 -22 -9 -32 -30 -15 -30 5 0
9 -7 9 -15 0 -8 -5 -11 -10 -8 -6 4 -8 0 -4 -10 3 -10 2 -17 -4 -17 -6 0 -7
-6 -3 -12 5 -8 0 -7 -11 2 -17 14 -18 14 -6 -7 10 -19 9 -22 -4 -17 -10 4 -15
0 -15 -14 0 -12 -5 -24 -12 -28 -7 -4 -8 -3 -4 4 4 7 2 12 -3 12 -10 0 -15
-14 -12 -33 1 -4 -8 -3 -20 4 -12 6 -19 7 -15 1 3 -5 -2 -13 -11 -17 -10 -3
-19 -1 -21 5 -2 6 -11 3 -20 -7 -10 -10 -24 -18 -32 -18 -8 1 -20 -3 -27 -7
-14 -11 -27 7 -18 25 4 6 -1 3 -11 -8 -16 -20 -16 -20 -11 3 5 20 3 21 -10 10
-13 -10 -17 -10 -20 0 -3 6 -11 12 -19 12 -10 0 -12 -5 -8 -12 5 -9 2 -9 -9 1
-9 7 -17 20 -17 28 0 7 -7 16 -15 19 -8 4 -12 11 -8 18 4 6 0 5 -9 -2 -15 -12
-16 -10 -13 19 4 25 2 30 -7 21 -7 -7 -17 -12 -23 -12 -5 0 -3 5 5 10 13 9 13
12 -2 23 -15 12 -15 14 0 25 9 7 12 10 6 7 -7 -2 -14 2 -17 10 -4 10 -1 12 11
8 15 -6 15 -4 4 10 -8 9 -10 22 -6 29 5 9 1 8 -12 -2 -18 -14 -18 -14 -5 3 7
9 10 17 7 17 -4 0 -2 9 4 19 8 16 6 22 -7 30 -17 10 -17 10 2 11 14 0 16 3 7
12 -7 7 -8 17 -2 29 7 12 6 20 -2 25 -7 5 -8 3 -3 -6 5 -9 4 -11 -4 -6 -9 6
-9 11 -1 21 6 7 7 21 3 30 -4 11 -2 16 3 12 6 -3 10 5 10 18 0 13 -4 21 -8 19
-5 -3 -5 -10 -2 -16 4 -7 2 -8 -4 -4 -9 5 -9 14 1 34 8 15 12 34 10 44 -2 9 6
23 19 32 25 18 17 22 -13 5 -18 -9 -19 -8 -7 10 6 11 16 17 21 14 5 -3 4 4 -2
15 -8 15 -7 23 3 31 7 6 16 7 20 3 5 -4 6 2 4 13 -2 14 3 20 17 20 10 0 25 11
32 25 7 14 13 20 13 13 0 -6 8 -10 18 -8 9 1 16 8 14 15 -1 6 3 10 10 7 7 -2
12 -10 10 -17 -3 -11 0 -11 12 0 18 14 22 25 6 15 -5 -3 -10 -1 -10 4 0 6 9
11 21 11 13 0 18 -4 13 -12 -6 -10 -4 -10 7 -2 8 6 22 14 31 17 13 4 15 2 11
-10 -5 -12 -2 -15 10 -10 9 3 19 1 23 -5 5 -7 2 -8 -6 -3 -9 5 -11 4 -6 -4 6
-9 11 -9 21 -1 9 8 15 8 20 0 3 -6 10 -8 15 -5 4 3 11 -2 14 -11 3 -9 13 -14
20 -11 10 4 14 0 11 -12 -2 -12 2 -18 13 -17 11 1 16 -5 14 -16 -2 -10 2 -18
8 -18 6 0 8 -5 5 -10 -4 -6 -3 -10 2 -9 19 3 34 -2 29 -10 -7 -11 13 -9 33 3
10 6 12 5 7 -2 -4 -7 -2 -12 3 -12 6 0 11 5 11 11 0 8 5 7 16 -2 13 -10 17
-10 25 2 7 11 9 11 9 0 0 -10 3 -11 14 -2 11 9 15 9 19 -1 4 -10 8 -10 16 2
10 13 11 13 11 0 0 -12 2 -13 9 -1 5 7 13 11 19 7 7 -4 9 3 6 21 -3 15 -10 31
-16 34 -7 4 -6 8 3 11 9 3 7 10 -8 25 -12 12 -25 18 -29 15 -5 -4 -2 1 5 11
13 16 12 19 -7 24 -12 3 -22 9 -22 14 0 5 -7 9 -15 9 -8 0 -15 5 -15 11 0 5 5
7 12 3 7 -4 8 -3 4 4 -4 6 -14 8 -23 5 -11 -4 -14 -3 -9 6 4 6 4 11 -1 10 -8
-3 -64 21 -73 31 -18 19 -52 43 -46 33 4 -7 3 -13 -3 -13 -5 0 -18 -3 -28 -7
-16 -6 -16 -5 -4 10 16 20 2 23 -18 5 -11 -10 -13 -10 -7 0 11 18 -230 15
-264 -4z m349 -27 c0 -9 -2 -8 -6 1 -2 6 -10 9 -15 6 -7 -4 -8 -2 -4 5 9 13
26 5 25 -12z m31 -531 c0 -11 -19 -15 -25 -6 -3 5 1 10 9 10 9 0 16 -2 16 -4z
m186 -101 c-1 -8 -5 -17 -8 -21 -5 -4 -4 16 1 34 3 9 9 -1 7 -13z"/>
<path d="M1046 2144 c-3 -9 1 -11 12 -8 12 4 11 0 -6 -14 -15 -14 -19 -23 -11
-27 6 -4 9 -18 6 -31 -2 -14 0 -27 4 -30 5 -3 9 -10 9 -16 0 -6 -7 -5 -17 3
-11 8 -9 3 4 -11 18 -20 20 -29 11 -45 -6 -11 -16 -24 -22 -28 -7 -6 -5 -7 5
-4 14 5 16 -1 11 -35 -3 -28 -1 -43 9 -50 11 -8 10 -9 -3 -4 -10 3 -20 1 -23
-5 -4 -5 -1 -8 6 -7 6 2 14 -3 17 -11 2 -8 1 -11 -4 -8 -10 6 -11 -44 -1 -60
9 -14 -2 -45 -13 -38 -11 7 13 -58 25 -68 6 -5 3 -7 -7 -3 -10 3 -20 1 -23 -5
-4 -5 -1 -8 6 -7 6 2 14 -3 17 -11 3 -9 0 -11 -9 -6 -9 5 -7 1 3 -11 12 -14
14 -24 7 -37 -6 -9 -14 -15 -19 -12 -11 7 12 -58 25 -68 6 -5 3 -7 -7 -3 -10
3 -20 1 -23 -5 -4 -5 -1 -8 6 -7 6 2 14 -3 17 -11 3 -10 0 -11 -9 -5 -11 6
-11 4 0 -10 16 -19 23 -58 9 -50 -4 3 -8 -1 -8 -10 0 -8 3 -16 8 -19 4 -2 2
-2 -5 -1 -7 2 -15 -1 -18 -7 -4 -5 -1 -8 6 -7 6 2 14 -3 17 -11 2 -8 1 -11 -4
-8 -10 6 -11 -50 -1 -60 15 -14 6 -25 -10 -12 -16 12 -17 12 -5 -2 6 -9 13
-34 14 -57 l1 -40 97 0 c88 0 96 1 97 19 1 12 -3 17 -10 13 -7 -3 -4 1 5 9 16
13 16 15 0 32 -16 17 -16 17 1 12 14 -5 16 -3 8 11 -5 10 -6 24 -1 33 5 8 5
21 0 29 -6 9 -4 20 6 31 12 14 12 16 -1 16 -8 0 -12 -4 -9 -9 3 -4 0 -8 -6 -8
-7 0 -9 7 -6 16 3 9 6 18 6 20 0 3 4 3 8 0 4 -2 7 7 6 21 0 13 -7 29 -15 34
-11 7 -11 9 4 9 17 0 17 1 0 28 -17 26 -17 27 1 12 18 -14 19 -14 8 5 -6 12
-7 27 -2 36 5 8 5 21 0 29 -6 9 -4 20 6 31 12 14 12 16 -1 16 -8 0 -12 -4 -9
-9 3 -4 0 -8 -5 -8 -13 0 -13 3 -5 24 3 9 9 14 13 12 4 -3 6 7 5 21 0 13 -7
29 -15 34 -11 7 -11 9 4 9 17 0 17 1 0 28 -17 26 -17 27 1 12 18 -14 19 -14 9
5 -7 11 -8 26 -3 35 5 9 5 22 0 30 -6 9 -4 20 6 31 12 14 12 16 -1 16 -8 0
-12 -4 -9 -9 3 -4 0 -8 -6 -8 -7 0 -9 7 -6 16 3 9 6 18 6 20 0 3 4 3 8 0 4 -2
7 7 6 21 0 13 -7 29 -15 34 -11 7 -11 9 4 9 17 0 17 1 0 28 -17 26 -17 27 1
12 18 -14 19 -14 8 6 -6 12 -7 26 -2 34 5 8 5 21 0 30 -6 10 -4 21 6 31 12 14
12 16 -1 16 -8 0 -12 -4 -9 -9 3 -4 0 -8 -6 -8 -7 0 -9 7 -6 16 3 9 6 18 6 20
0 3 4 3 8 0 5 -3 9 1 9 9 0 8 -4 12 -9 9 -12 -8 -10 10 3 23 8 8 -19 11 -95
11 -78 0 -106 -4 -110 -14z m21 -49 c0 -8 -4 -12 -9 -9 -4 3 -8 9 -8 15 0 5 4
9 8 9 5 0 9 -7 9 -15z m0 -407 c2 -18 0 -20 -7 -8 -12 18 -13 30 -2 30 4 0 9
-10 9 -22z m0 -160 c2 -18 0 -20 -7 -8 -12 18 -13 30 -2 30 4 0 9 -10 9 -22z
m8 -248 c3 -6 -1 -7 -9 -4 -18 7 -21 14 -7 14 6 0 13 -4 16 -10z"/>
<path d="M470 2009 c0 -5 5 -7 10 -4 6 3 10 8 10 11 0 2 -4 4 -10 4 -5 0 -10
-5 -10 -11z"/>
<path d="M1035 1980 c4 -6 11 -8 16 -5 14 9 11 15 -7 15 -8 0 -12 -5 -9 -10z"/>
<path d="M1712 1931 c2 -19 -4 -22 -17 -11 -13 10 -19 10 -33 -4 -10 -9 -22
-13 -25 -10 -4 4 -9 0 -13 -9 -3 -9 -12 -13 -20 -10 -8 3 -14 0 -14 -6 0 -6
-4 -11 -10 -11 -5 0 -23 -13 -38 -30 -16 -16 -35 -30 -42 -30 -7 0 -10 -3 -7
-7 4 -3 -1 -12 -11 -20 -9 -8 -11 -11 -4 -8 11 6 11 3 1 -13 -7 -12 -18 -18
-24 -14 -5 3 -5 -1 2 -9 9 -11 8 -18 -1 -31 -7 -10 -17 -14 -22 -10 -4 4 -3 0
4 -10 10 -12 10 -18 1 -24 -8 -4 -9 -3 -5 4 5 8 2 10 -9 6 -14 -6 -14 -8 2
-20 15 -10 16 -15 5 -26 -11 -11 -12 -10 -7 7 5 15 4 17 -3 6 -6 -8 -8 -20 -5
-28 3 -7 -1 -13 -8 -13 -7 0 -9 -3 -6 -6 4 -4 14 -1 23 7 16 13 16 12 0 -18
-10 -20 -12 -33 -6 -33 6 0 9 -4 5 -10 -3 -5 -13 -6 -23 -3 -16 6 -16 6 1 -11
9 -10 15 -22 12 -27 -4 -5 -1 -9 6 -9 8 0 7 -5 -2 -17 -12 -14 -12 -16 2 -11
9 4 16 1 16 -8 0 -7 -4 -11 -9 -8 -15 10 -8 -9 10 -23 9 -8 11 -12 5 -8 -16 7
-17 -11 -3 -20 8 -5 7 -12 -2 -23 -10 -12 -10 -14 0 -8 8 5 12 0 12 -13 0 -12
5 -21 11 -21 5 0 7 5 3 12 -4 6 -3 8 4 5 5 -4 8 -17 4 -29 -4 -16 -2 -19 9
-13 12 8 12 6 0 -8 -8 -10 -11 -20 -7 -24 3 -3 6 -1 6 5 0 7 5 12 11 12 5 0 7
-4 4 -10 -3 -6 4 -10 17 -10 16 0 19 -3 10 -9 -11 -7 -11 -9 2 -14 10 -4 13
-13 9 -24 -5 -15 -3 -16 8 -5 13 12 38 18 26 6 -3 -4 0 -13 8 -20 17 -17 29
-18 19 -1 -6 8 -3 8 9 -1 9 -8 22 -10 29 -6 11 6 11 5 0 -8 -7 -9 -9 -19 -4
-21 4 -3 70 -6 146 -6 119 0 136 2 125 15 -10 12 -9 13 6 8 11 -5 16 -3 12 2
-3 5 3 10 13 10 14 0 16 -3 8 -13 -8 -10 -7 -12 6 -7 9 3 16 13 16 22 0 13 3
12 15 -4 8 -10 15 -14 14 -9 -4 30 1 37 16 25 13 -11 14 -10 10 2 -3 8 2 21
11 29 11 9 15 9 10 2 -5 -9 -2 -11 9 -7 12 5 13 9 4 20 -10 12 -8 13 6 8 13
-5 16 -4 11 4 -4 8 -2 10 7 6 8 -3 18 0 23 7 5 8 3 10 -7 4 -11 -7 -12 -6 -2
7 7 8 10 18 6 22 -4 4 0 4 10 0 22 -8 22 12 0 26 -15 9 -14 10 7 5 19 -5 22
-4 10 4 -13 10 -13 12 0 21 21 13 3 13 -23 -1 l-22 -12 20 23 c11 13 14 20 5
14 -20 -12 -32 -12 -47 -2 -7 6 -14 4 -19 -3 -4 -8 -3 -9 4 -5 7 4 12 2 12 -4
0 -6 -8 -10 -17 -8 -10 2 -17 10 -15 17 1 7 -2 10 -8 6 -6 -3 -8 -11 -5 -16 4
-5 1 -9 -4 -9 -6 0 -11 5 -11 11 0 8 -6 7 -17 -2 -15 -12 -16 -12 -10 5 6 14
5 16 -5 8 -13 -10 -18 -12 -39 -12 -8 0 -8 -4 1 -15 10 -12 8 -14 -9 -10 -13
2 -21 -1 -21 -10 0 -8 -4 -17 -10 -20 -6 -3 -7 1 -4 12 3 10 -2 7 -10 -7 -10
-16 -16 -19 -16 -10 -1 13 -2 13 -13 -1 -7 -9 -18 -14 -26 -11 -8 3 -11 0 -7
-7 5 -7 1 -9 -8 -5 -9 3 -14 10 -11 14 6 10 -48 5 -66 -6 -10 -6 -10 -3 1 11
9 11 10 16 3 11 -8 -4 -13 -2 -13 6 0 9 -3 9 -10 -2 -7 -11 -10 -11 -10 -2 0
7 -4 10 -10 7 -5 -3 -10 3 -10 14 0 20 -11 26 -35 21 -5 -1 -4 4 3 11 14 15
16 33 2 24 -5 -3 -10 -1 -10 5 0 6 -5 8 -12 4 -7 -4 -8 -3 -4 5 4 6 12 8 18 5
5 -4 2 6 -8 22 -15 23 -15 26 -3 16 14 -10 19 -9 30 5 13 16 12 17 -3 4 -10
-7 -18 -9 -18 -3 0 14 28 23 36 11 4 -7 10 -6 19 1 9 8 15 8 20 0 3 -5 11 -10
16 -10 6 0 7 5 3 12 -4 7 -3 8 5 4 20 -13 61 -14 61 -2 0 6 5 4 10 -4 6 -9 10
-11 10 -3 0 7 7 10 15 7 8 -4 12 -11 9 -18 -3 -6 2 -2 10 8 10 13 16 15 16 7
0 -10 3 -11 13 -2 8 6 16 8 19 6 12 -12 48 -13 48 -2 0 8 3 8 8 2 11 -15 32
-17 32 -3 0 8 3 9 8 3 4 -5 14 -10 22 -10 8 0 18 5 22 10 5 6 8 5 8 -2 0 -7 5
-13 11 -13 5 0 7 5 3 11 -4 8 0 8 15 0 16 -9 21 -9 21 1 0 9 3 9 10 -2 7 -11
10 -11 10 -2 0 8 5 10 12 6 8 -5 9 -2 5 9 -4 11 -1 17 8 17 8 0 15 5 15 11 0
5 -4 8 -9 4 -5 -3 -13 -1 -16 5 -4 6 -3 10 2 9 22 -4 25 3 7 17 -10 8 -14 13
-8 10 7 -3 17 1 24 9 10 12 8 13 -11 10 -17 -3 -20 -2 -11 7 8 8 8 16 -1 32
-14 27 -15 47 -2 65 8 12 7 13 -4 6 -11 -6 -13 -4 -8 8 3 9 1 19 -5 23 -7 5
-8 2 -3 -6 5 -9 4 -11 -4 -6 -9 6 -9 11 1 24 11 13 11 14 -1 7 -11 -6 -13 -4
-8 9 5 13 3 17 -7 13 -10 -4 -14 0 -11 14 2 11 0 17 -6 14 -8 -6 -13 9 -10 29
1 5 -4 4 -12 -3 -12 -9 -16 -8 -21 5 -3 9 -4 19 -1 24 3 4 -4 6 -15 3 -14 -4
-20 0 -20 10 0 9 -5 19 -12 23 -7 4 -8 3 -4 -4 11 -19 -5 -14 -21 6 -8 9 -12
12 -9 5 4 -6 2 -15 -4 -18 -6 -4 -10 -3 -9 2 4 26 -2 33 -20 24 -15 -8 -20 -7
-23 7 -4 14 -14 18 -42 17 -20 -1 -39 -5 -42 -8 -4 -3 -15 -2 -25 3 -12 7 -20
7 -24 0 -4 -6 -11 -8 -16 -4 -5 3 -7 9 -5 13 3 4 -1 8 -9 8 -8 0 -14 -3 -13
-6z m-27 -21 c-3 -5 -11 -10 -16 -10 -6 0 -7 5 -4 10 3 6 11 10 16 10 6 0 7
-4 4 -10z m-34 -27 c13 -16 12 -17 -3 -4 -10 7 -18 15 -18 17 0 8 8 3 21 -13z
m133 -95 c-5 -7 0 -9 14 -6 12 4 26 0 33 -8 6 -8 15 -12 19 -9 4 3 13 -2 20
-10 7 -8 17 -12 23 -8 6 3 7 1 3 -5 -4 -7 -2 -12 3 -12 6 0 11 -9 11 -21 0
-12 4 -18 11 -13 7 4 10 1 7 -7 -3 -8 -1 -22 3 -31 6 -10 5 -19 -1 -23 -6 -4
-8 -10 -6 -14 3 -4 -4 -8 -15 -8 -10 -1 -19 2 -19 8 0 5 -7 9 -15 9 -8 0 -15
-5 -15 -11 0 -5 5 -7 12 -3 7 5 8 3 3 -6 -6 -10 -11 -9 -22 5 -10 14 -13 15
-14 4 0 -10 -2 -10 -6 -1 -2 6 -9 12 -14 12 -6 0 -8 -4 -5 -9 4 -5 -2 -8 -11
-6 -10 1 -23 -2 -30 -7 -7 -6 -14 -5 -19 3 -5 8 -3 9 6 4 9 -5 11 -4 6 4 -6 9
-11 9 -24 -1 -14 -11 -15 -10 -9 7 6 18 5 18 -5 3 -11 -15 -13 -15 -23 -1 -10
13 -14 13 -20 3 -5 -9 -4 -11 3 -6 7 4 12 3 12 -2 0 -5 -18 -9 -39 -8 -22 0
-37 4 -35 8 2 3 -4 14 -13 24 -17 17 -17 18 0 11 13 -5 17 -1 17 19 0 14 4 22
10 19 6 -3 10 3 10 15 0 14 4 19 12 14 8 -5 9 -2 5 10 -4 10 -3 15 3 11 6 -3
10 -2 10 4 0 5 9 8 20 6 11 -2 23 1 26 7 5 7 2 8 -6 3 -8 -5 -11 -4 -6 3 4 6
14 8 23 5 11 -5 14 -3 8 6 -6 10 -3 11 14 2 12 -7 21 -8 20 -4 -2 13 1 23 7
23 3 0 2 -5 -2 -12z m-350 -274 c3 -8 2 -12 -4 -9 -6 3 -10 10 -10 16 0 14 7
11 14 -7z m330 -216 c-3 -4 -9 -8 -15 -8 -5 0 -9 4 -9 8 0 5 7 9 15 9 8 0 12
-4 9 -9z m-89 -117 c-3 -2 -16 -6 -28 -8 -15 -2 -18 0 -9 5 14 9 45 12 37 3z"/>
<path d="M1813 1765 c0 -8 4 -12 9 -9 5 3 6 10 3 15 -9 13 -12 11 -12 -6z"/>
<path d="M1850 1750 c0 -5 5 -10 11 -10 5 0 7 5 4 10 -3 6 -8 10 -11 10 -2 0
-4 -4 -4 -10z"/>
<path d="M1908 1653 c10 -4 10 -8 0 -21 -12 -15 -11 -16 4 -3 19 14 15 32 -5
30 -8 0 -8 -2 1 -6z"/>
<path d="M1630 1641 c0 -6 5 -13 10 -16 6 -3 10 1 10 9 0 9 -4 16 -10 16 -5 0
-10 -4 -10 -9z"/>
<path d="M1776 1632 c-3 -5 1 -9 9 -9 8 0 12 4 9 9 -3 4 -7 8 -9 8 -2 0 -6 -4
-9 -8z"/>
<path d="M2641 1933 c-1 -7 -8 -10 -18 -6 -10 4 -14 2 -10 -4 4 -6 -2 -9 -16
-7 -12 2 -35 5 -52 8 -18 2 -37 -2 -47 -12 -10 -8 -18 -11 -18 -6 0 5 -6 2
-13 -6 -7 -8 -19 -15 -27 -15 -8 0 -14 -6 -12 -14 3 -12 1 -12 -14 0 -12 9
-15 9 -10 2 6 -12 -5 -18 -26 -14 -5 0 -7 -2 -7 -7 3 -20 -2 -32 -16 -32 -8 0
-14 -3 -14 -7 3 -21 -2 -33 -16 -33 -8 0 -15 -9 -15 -19 0 -11 -7 -26 -15 -35
-10 -9 -11 -17 -5 -21 13 -8 3 -25 -13 -25 -7 0 -6 4 3 10 9 6 10 10 3 10 -15
0 -26 -17 -15 -24 10 -6 8 -88 -2 -105 -5 -8 -3 -17 5 -22 11 -7 11 -9 1 -9
-7 0 -11 -4 -7 -9 3 -5 1 -12 -5 -16 -5 -3 -10 -11 -10 -17 0 -6 6 -6 15 2 13
11 14 10 9 -4 -3 -9 -11 -16 -18 -16 -6 0 -4 -5 5 -10 11 -6 15 -22 14 -54 -1
-34 2 -46 12 -46 8 0 11 -5 8 -10 -4 -6 -12 -7 -18 -3 -7 4 -6 0 2 -10 7 -9
20 -17 28 -17 13 0 13 -3 3 -16 -11 -13 -10 -16 9 -21 14 -3 20 -11 17 -20 -3
-8 -2 -12 3 -9 5 3 18 -3 30 -13 21 -19 29 -37 11 -26 -5 3 -10 1 -10 -4 0 -6
10 -10 23 -8 14 1 21 -3 19 -12 -3 -12 0 -12 12 -2 13 11 18 10 31 -3 9 -8 22
-13 30 -10 8 4 15 1 15 -6 0 -6 -5 -8 -12 -4 -6 4 -8 3 -4 -4 4 -7 56 -11 146
-11 80 0 138 4 135 9 -3 5 -11 8 -18 6 -7 -1 -9 -1 -4 1 4 3 4 9 1 15 -5 7 -1
7 11 1 22 -13 57 -5 48 11 -4 6 1 5 10 -3 15 -12 17 -11 17 3 0 15 13 20 50
17 10 0 11 1 3 5 -19 8 -15 25 5 22 11 -2 16 3 14 14 -2 12 2 16 13 12 10 -4
15 0 15 11 0 10 -5 13 -12 9 -6 -4 -8 -3 -4 4 3 6 15 9 25 7 14 -3 18 1 14 16
-3 10 -1 19 4 19 5 0 10 7 10 15 0 12 -3 12 -15 2 -13 -10 -14 -8 -7 13 7 23
7 24 -10 10 -15 -12 -17 -12 -10 -1 6 11 4 13 -8 8 -10 -4 -20 0 -25 10 -8 14
-10 13 -15 -1 -4 -10 -3 -15 3 -11 6 3 10 1 10 -5 0 -6 -8 -10 -17 -8 -10 2
-17 10 -15 17 1 7 -2 10 -8 6 -6 -3 -8 -11 -5 -16 4 -5 1 -9 -4 -9 -10 0 -15
14 -12 33 1 5 -3 6 -9 2 -6 -3 -8 -11 -5 -16 4 -5 1 -9 -5 -9 -6 0 -8 -5 -4
-12 4 -7 3 -8 -5 -4 -6 4 -9 11 -6 16 3 5 0 12 -6 16 -8 4 -9 3 -5 -5 4 -6 0
-14 -10 -18 -10 -3 -25 -14 -35 -22 -43 -39 -49 -42 -49 -29 0 10 -2 10 -9 -1
-5 -8 -18 -12 -31 -8 -16 4 -20 2 -16 -9 3 -8 1 -14 -5 -14 -5 0 -12 7 -15 15
-6 14 -8 14 -19 -1 -11 -15 -13 -15 -27 5 -11 16 -17 19 -21 9 -4 -10 -6 -10
-6 0 -1 6 -7 12 -15 12 -8 0 -18 4 -21 10 -3 6 1 7 12 4 13 -4 13 -2 -3 8 -12
7 -19 19 -16 27 3 8 0 11 -6 7 -6 -3 -13 -2 -17 4 -3 5 0 10 7 10 10 0 9 3 -2
9 -8 6 -19 7 -25 4 -5 -4 -7 -3 -3 2 4 4 3 14 -4 22 -6 7 -8 16 -4 20 3 3 6 1
6 -6 0 -7 5 -9 10 -6 6 4 8 10 5 15 -6 10 23 22 36 14 5 -3 9 -1 9 4 0 5 7 9
15 9 10 0 14 -6 10 -15 -4 -12 -2 -12 8 -4 8 7 17 9 20 5 4 -3 7 -2 7 4 0 5 7
10 15 10 8 0 12 -4 9 -8 -7 -12 60 -6 68 6 5 7 8 6 8 0 0 -6 9 -11 20 -12 11
-1 18 2 16 6 -3 4 5 7 17 6 13 -2 21 -8 19 -16 -1 -8 4 -6 13 5 9 12 15 15 15
7 0 -11 3 -11 17 0 11 10 14 10 9 2 -4 -7 -2 -13 3 -13 6 0 11 4 11 10 0 5 7
7 15 4 8 -4 12 -11 9 -18 -3 -6 2 -2 10 8 9 11 16 15 16 9 0 -13 32 -12 42 2
5 6 8 6 8 -1 0 -6 12 -10 28 -9 19 1 27 7 26 18 -1 9 4 17 12 17 8 0 14 5 14
11 0 5 -4 8 -9 4 -5 -3 -13 -1 -16 5 -4 6 -3 10 2 9 19 -3 27 2 15 10 -11 6
-11 17 -3 45 8 31 7 35 -3 27 -10 -9 -13 -6 -12 11 1 13 -3 29 -8 37 -8 11 -8
13 0 8 6 -3 11 0 11 8 0 8 -4 12 -9 9 -12 -8 -10 10 3 23 8 8 8 13 0 18 -6 3
-10 2 -9 -3 2 -6 -1 -9 -7 -9 -5 1 -9 7 -7 14 2 7 -2 13 -8 13 -6 0 -8 5 -5
10 3 6 1 10 -4 10 -6 0 -11 7 -11 16 0 8 -4 13 -9 10 -5 -3 -12 1 -15 10 -3 8
-2 12 3 9 5 -3 12 -1 15 4 4 5 -5 8 -19 7 -15 -2 -31 5 -42 18 l-18 21 23 -19
c12 -11 22 -15 22 -9 0 5 -12 16 -27 24 -16 8 -36 22 -47 31 -17 16 -20 16
-45 0 -25 -16 -25 -16 -12 1 12 15 11 17 -10 18 -13 1 -28 1 -33 0 -5 -1 -6 5
-3 14 6 13 4 13 -17 -1 -22 -14 -25 -14 -29 3 -3 10 -5 13 -6 6z m-121 -23 c0
-5 -5 -10 -11 -10 -5 0 -7 5 -4 10 3 6 8 10 11 10 2 0 4 -4 4 -10z m-29 -27
c13 -16 12 -17 -3 -4 -10 7 -18 15 -18 17 0 8 8 3 21 -13z m294 7 c3 -5 1 -10
-4 -10 -6 0 -11 5 -11 10 0 6 2 10 4 10 3 0 8 -4 11 -10z m-130 -115 c11 0 31
-9 44 -20 16 -13 22 -15 17 -5 -5 9 -2 8 7 -2 8 -10 17 -15 21 -11 4 4 4 0 0
-10 -4 -11 0 -19 11 -23 13 -5 14 -9 3 -15 -9 -6 -9 -9 -1 -9 7 0 17 -9 22
-19 8 -14 7 -22 -6 -32 -12 -10 -15 -10 -9 -1 4 6 2 12 -3 12 -11 0 -15 -13
-12 -35 1 -5 -5 -2 -13 8 -8 11 -17 14 -20 8 -4 -5 -22 -8 -42 -5 -26 3 -34 1
-29 -8 4 -7 0 -5 -8 5 -15 18 -33 24 -23 8 4 -5 -2 -8 -11 -6 -10 1 -24 -3
-32 -9 -11 -8 -13 -8 -7 2 4 6 3 12 -3 12 -5 0 -13 -4 -16 -10 -4 -6 -14 -5
-28 3 -28 15 -37 28 -30 41 3 5 1 6 -5 2 -6 -4 -9 -14 -6 -24 5 -16 5 -16 -6
0 -7 12 -8 24 -1 37 6 10 7 22 3 26 -4 5 2 5 12 1 16 -5 17 -4 6 9 -12 14 -7
20 14 16 5 -1 6 5 2 14 -3 9 -2 13 4 10 6 -3 10 -2 10 4 0 5 9 8 20 6 13 -3
18 0 14 7 -5 8 -1 9 10 5 14 -5 17 -3 12 8 -3 8 -1 15 4 15 6 0 10 -4 10 -10
0 -5 7 -10 15 -10 8 0 15 5 15 11 0 5 -5 7 -12 3 -7 -5 -8 -3 -3 6 7 11 10 10
19 -1 6 -8 20 -14 31 -14z"/>
<path d="M2756 1661 c-3 -5 1 -11 9 -14 9 -4 12 -1 8 9 -6 16 -10 17 -17 5z"/>
<path d="M2540 1630 c-8 -5 -12 -12 -9 -15 4 -3 12 1 19 10 14 17 11 19 -10 5z"/>
<path d="M2576 1632 c-3 -5 1 -9 9 -9 8 0 12 4 9 9 -3 4 -7 8 -9 8 -2 0 -6 -4
-9 -8z"/>
<path d="M1536 1853 c-6 -14 -5 -15 5 -6 7 7 10 15 7 18 -3 3 -9 -2 -12 -12z"/>
<path d="M606 1743 c-6 -14 -5 -15 5 -6 7 7 10 15 7 18 -3 3 -9 -2 -12 -12z"/>
<path d="M635 1740 c3 -5 11 -10 16 -10 6 0 7 5 4 10 -3 6 -11 10 -16 10 -6 0
-7 -4 -4 -10z"/>
<path d="M1440 1719 c0 -5 5 -7 10 -4 6 3 10 8 10 11 0 2 -4 4 -10 4 -5 0 -10
-5 -10 -11z"/>
<path d="M2255 1604 c2 -18 -1 -24 -12 -20 -8 3 -11 1 -8 -5 4 -5 12 -8 18 -6
12 4 17 46 6 52 -4 3 -6 -6 -4 -21z"/>
<path d="M1035 1580 c4 -6 11 -8 16 -5 14 9 11 15 -7 15 -8 0 -12 -5 -9 -10z"/>
<path d="M2245 1541 c-3 -5 -2 -12 3 -15 5 -3 9 1 9 9 0 17 -3 19 -12 6z"/>
<path d="M2255 1451 c-3 -5 -2 -12 3 -15 5 -3 9 1 9 9 0 17 -3 19 -12 6z"/>
<path d="M1035 1420 c4 -6 11 -8 16 -5 14 9 11 15 -7 15 -8 0 -12 -5 -9 -10z"/>
<path d="M3101 1358 c-1 -9 -5 -18 -10 -20 -6 -1 -12 -15 -15 -31 -3 -16 -1
-25 5 -22 5 4 9 1 9 -4 0 -6 -3 -11 -8 -11 -13 0 -7 -77 7 -94 12 -14 31 -17
113 -15 103 2 111 5 113 50 1 20 -3 26 -14 22 -14 -4 -14 -3 -1 9 9 8 16 31
16 59 0 38 -3 45 -20 47 -11 0 -22 6 -24 12 -2 5 -8 10 -13 10 -6 0 -8 -4 -5
-8 2 -4 -4 -8 -14 -8 -10 0 -17 4 -14 8 7 11 -50 4 -58 -7 -5 -6 -8 -6 -8 2 0
12 -17 12 -37 0 -6 -4 -14 -1 -16 5 -4 8 -6 7 -6 -4z m205 -59 c1 -16 -6 -35
-15 -41 -13 -11 -14 -11 -5 2 5 8 10 30 9 47 -1 18 1 30 4 27 3 -3 6 -19 7
-35z m-1 -99 c-1 -11 -4 -22 -7 -25 -4 -5 -4 34 1 43 4 8 7 -1 6 -18z"/>
<path d="M2575 1321 c-3 -5 -2 -12 3 -15 5 -3 9 1 9 9 0 17 -3 19 -12 6z"/>
<path d="M447 1301 c-10 -14 -10 -14 4 -4 9 7 18 10 21 7 3 -3 8 -1 12 4 9 16
-24 9 -37 -7z"/>
<path d="M2430 1192 c0 -4 10 -13 23 -21 22 -14 22 -14 3 8 -20 22 -26 25 -26
13z"/>
</g>
</svg>
