<?xml version="1.0" encoding="UTF-8"?>
<svg xmlns="http://www.w3.org/2000/svg" xmlns:xlink="http://www.w3.org/1999/xlink" width="8pt" height="9pt" viewBox="0 0 8 9" version="1.1">
<g id="surface1">
<path style=" stroke:none;fill-rule:nonzero;fill:rgb(0%,0%,0%);fill-opacity:1;" d="M 0 8.15625 C 0 8.621094 0.382812 9 0.855469 9 L 7.144531 9 C 7.617188 9 8 8.621094 8 8.15625 L 8 3.375 L 0 3.375 Z M 5.714844 4.710938 C 5.714844 4.59375 5.8125 4.5 5.929688 4.5 L 6.644531 4.5 C 6.761719 4.5 6.855469 4.59375 6.855469 4.710938 L 6.855469 5.414062 C 6.855469 5.53125 6.761719 5.625 6.644531 5.625 L 5.929688 5.625 C 5.8125 5.625 5.714844 5.53125 5.714844 5.414062 Z M 5.714844 6.960938 C 5.714844 6.84375 5.8125 6.75 5.929688 6.75 L 6.644531 6.75 C 6.761719 6.75 6.855469 6.84375 6.855469 6.960938 L 6.855469 7.664062 C 6.855469 7.78125 6.761719 7.875 6.644531 7.875 L 5.929688 7.875 C 5.8125 7.875 5.714844 7.78125 5.714844 7.664062 Z M 3.429688 4.710938 C 3.429688 4.59375 3.523438 4.5 3.644531 4.5 L 4.355469 4.5 C 4.476562 4.5 4.570312 4.59375 4.570312 4.710938 L 4.570312 5.414062 C 4.570312 5.53125 4.476562 5.625 4.355469 5.625 L 3.644531 5.625 C 3.523438 5.625 3.429688 5.53125 3.429688 5.414062 Z M 3.429688 6.960938 C 3.429688 6.84375 3.523438 6.75 3.644531 6.75 L 4.355469 6.75 C 4.476562 6.75 4.570312 6.84375 4.570312 6.960938 L 4.570312 7.664062 C 4.570312 7.78125 4.476562 7.875 4.355469 7.875 L 3.644531 7.875 C 3.523438 7.875 3.429688 7.78125 3.429688 7.664062 Z M 1.144531 4.710938 C 1.144531 4.59375 1.238281 4.5 1.355469 4.5 L 2.070312 4.5 C 2.1875 4.5 2.285156 4.59375 2.285156 4.710938 L 2.285156 5.414062 C 2.285156 5.53125 2.1875 5.625 2.070312 5.625 L 1.355469 5.625 C 1.238281 5.625 1.144531 5.53125 1.144531 5.414062 Z M 1.144531 6.960938 C 1.144531 6.84375 1.238281 6.75 1.355469 6.75 L 2.070312 6.75 C 2.1875 6.75 2.285156 6.84375 2.285156 6.960938 L 2.285156 7.664062 C 2.285156 7.78125 2.1875 7.875 2.070312 7.875 L 1.355469 7.875 C 1.238281 7.875 1.144531 7.78125 1.144531 7.664062 Z M 7.144531 1.125 L 6.285156 1.125 L 6.285156 0.28125 C 6.285156 0.125 6.15625 0 6 0 L 5.429688 0 C 5.269531 0 5.144531 0.125 5.144531 0.28125 L 5.144531 1.125 L 2.855469 1.125 L 2.855469 0.28125 C 2.855469 0.125 2.730469 0 2.570312 0 L 2 0 C 1.84375 0 1.714844 0.125 1.714844 0.28125 L 1.714844 1.125 L 0.855469 1.125 C 0.382812 1.125 0 1.503906 0 1.96875 L 0 2.8125 L 8 2.8125 L 8 1.96875 C 8 1.503906 7.617188 1.125 7.144531 1.125 Z M 7.144531 1.125 "/>
</g>
</svg>
