<?xml version="1.0" encoding="UTF-8"?>
<svg xmlns="http://www.w3.org/2000/svg" xmlns:xlink="http://www.w3.org/1999/xlink" width="8pt" height="9pt" viewBox="0 0 8 9" version="1.1">
<g id="surface1">
<path style=" stroke:none;fill-rule:nonzero;fill:rgb(0%,0%,0%);fill-opacity:1;" d="M 4 4.5 C 5.261719 4.5 6.285156 3.492188 6.285156 2.25 C 6.285156 1.007812 5.261719 0 4 0 C 2.738281 0 1.714844 1.007812 1.714844 2.25 C 1.714844 3.492188 2.738281 4.5 4 4.5 Z M 5.601562 5.0625 L 5.300781 5.0625 C 4.90625 5.242188 4.464844 5.34375 4 5.34375 C 3.535156 5.34375 3.097656 5.242188 2.699219 5.0625 L 2.398438 5.0625 C 1.074219 5.0625 0 6.121094 0 7.425781 L 0 8.15625 C 0 8.621094 0.382812 9 0.855469 9 L 7.144531 9 C 7.617188 9 8 8.621094 8 8.15625 L 8 7.425781 C 8 6.121094 6.925781 5.0625 5.601562 5.0625 Z M 5.601562 5.0625 "/>
</g>
</svg>
