<?xml version="1.0" encoding="utf-8"?><svg viewBox="0 0 576 512" xmlns="http://www.w3.org/2000/svg" xmlns:xlink="http://www.w3.org/1999/xlink"><style>:root>svg{display:none}:root>svg:target{display:block}</style><svg viewBox="0 0 22 20" id="add-product-icon" xmlns="http://www.w3.org/2000/svg"><defs><style>.acls-1{fill:#fff;fill-rule:evenodd}</style></defs><path id="aForma_1" data-name="Forma 1" class="acls-1" d="M800.814 1564.63h2.333l3.323 12.04a.812.812 0 00.787.59h10.214a.821.821 0 00.746-.48l3.717-8.56a.836.836 0 00-.068-.78.813.813 0 00-.678-.37H809.9a.82.82 0 000 1.64h10.04l-3.011 6.92h-9.062l-3.323-12.03a.808.808 0 00-.787-.6h-2.943a.815.815 0 000 1.63zm5.67 18.37a1.85 1.85 0 10-1.845-1.85 1.85 1.85 0 001.845 1.85zm11.53 0h.135a1.907 1.907 0 10-.135 0z" transform="translate(-800 -1563)"/></svg><svg viewBox="0 0 22 9" id="arrow-black" xmlns="http://www.w3.org/2000/svg"><defs><style>.bcls-1{fill:#436372;fill-rule:evenodd}</style></defs><path class="bcls-1" d="M.3 5.47h16.948l-.1 2.86a.279.279 0 00-.084.2.3.3 0 00.084.21l.172.17a.276.276 0 00.408 0L21.92 4.7a.283.283 0 00.084-.2.307.307 0 00-.084-.21L17.728.08a.3.3 0 00-.408 0l-.172.17a.3.3 0 00-.084.21.3.3 0 00.084.2l.113 2.86H.292a.3.3 0 00-.292.3v1.37a.288.288 0 00.3.28z"/></svg><svg aria-hidden="true" data-prefix="fas" data-icon="arrow-right" class="csvg-inline--fa cfa-arrow-right cfa-w-14" viewBox="0 0 448 512" id="arrow-icon" xmlns="http://www.w3.org/2000/svg"><path d="M190.5 66.9l22.2-22.2c9.4-9.4 24.6-9.4 33.9 0L441 239c9.4 9.4 9.4 24.6 0 33.9L246.6 467.3c-9.4 9.4-24.6 9.4-33.9 0l-22.2-22.2c-9.5-9.5-9.3-25 .4-34.3L311.4 296H24c-13.3 0-24-10.7-24-24v-32c0-13.3 10.7-24 24-24h287.4L190.9 101.2c-9.8-9.3-10-24.8-.4-34.3z"/></svg><svg viewBox="0 0 6.1 10.97" id="arrow-right" xmlns="http://www.w3.org/2000/svg"><defs><style>.dcls-1{fill:#262626;fill-rule:evenodd}</style></defs><path class="dcls-1" d="M.55 10.97a.53.53 0 01-.41-.19.6.6 0 01-.15-.4.631.631 0 01.17-.43l4.55-4.47L.16 1A.607.607 0 01-.01.58.629.629 0 01.14.17a.559.559 0 01.8-.02l4.98 4.9.01.01a.657.657 0 01.12.17.7.7 0 01.05.25.742.742 0 01-.05.25.61.61 0 01-.12.16c0 .01-.01.01-.01.02l-4.98 4.9a.589.589 0 01-.39.16z"/></svg><svg viewBox="0 0 22 9" id="arrow-right_copy" xmlns="http://www.w3.org/2000/svg"><path class="ecls-1" d="M.3 5.47h16.94l-.1 2.86a.3.3 0 00-.08.2.323.323 0 00.08.21l.18.17a.267.267 0 00.4 0l4.2-4.21a.3.3 0 00.08-.2.323.323 0 00-.08-.21L17.72.08a.29.29 0 00-.4 0l-.18.17a.323.323 0 00-.08.21.318.318 0 00.08.2l.12 2.86H.29a.3.3 0 00-.29.3v1.37a.291.291 0 00.3.28z"/></svg><svg viewBox="0 0 18.94 16.969" id="basket" xmlns="http://www.w3.org/2000/svg"><path d="M5.53 16.978a2.074 2.074 0 110-4.147 2.056 2.056 0 011.46.6 2.03 2.03 0 01.61 1.466 2.071 2.071 0 01-2.07 2.081zm0-2.963a.889.889 0 10.34 1.71.9.9 0 00.55-.824.92.92 0 00-.26-.629.9.9 0 00-.63-.257zm8.39 2.963a2.045 2.045 0 01-1.46-.607 2.068 2.068 0 011.46-3.54 1.953 1.953 0 011.47.6 2.085 2.085 0 01-.67 3.383 2.093 2.093 0 01-.8.164zm0-2.963a.978.978 0 00-.82.548.887.887 0 001.16 1.161.891.891 0 00.29-1.452.9.9 0 00-.63-.257zm-11.27.164a.562.562 0 01-.25-.056.59.59 0 01-.29-.787 3.686 3.686 0 013.05-2.151L4.11 5.794a.591.591 0 111.16-.228l1.09 5.578h9.43l1.8-6.771H4.29A4.346 4.346 0 01.01.68.587.587 0 01.5.007a.6.6 0 01.68.5 3.159 3.159 0 003.11 2.682h14.07a.582.582 0 01.47.232.594.594 0 01.11.513l-2.13 7.956a.59.59 0 01-.57.44H5.88a.03.03 0 00-.02 0 2.66 2.66 0 00-2.68 1.51.586.586 0 01-.53.338z"/></svg><svg aria-hidden="true" data-prefix="fas" data-icon="envelope-open-text" class="gsvg-inline--fa gfa-envelope-open-text gfa-w-16" viewBox="0 0 512 512" id="envelope-open" xmlns="http://www.w3.org/2000/svg"><path d="M176 216h160c8.84 0 16-7.16 16-16v-16c0-8.84-7.16-16-16-16H176c-8.84 0-16 7.16-16 16v16c0 8.84 7.16 16 16 16zm-16 80c0 8.84 7.16 16 16 16h160c8.84 0 16-7.16 16-16v-16c0-8.84-7.16-16-16-16H176c-8.84 0-16 7.16-16 16v16zm96 121.13c-16.42 0-32.84-5.06-46.86-15.19L0 250.86V464c0 26.51 21.49 48 48 48h416c26.51 0 48-21.49 48-48V250.86L302.86 401.94c-14.02 10.12-30.44 15.19-46.86 15.19zm237.61-254.18c-8.85-6.94-17.24-13.47-29.61-22.81V96c0-26.51-21.49-48-48-48h-77.55c-3.04-2.2-5.87-4.26-9.04-6.56C312.6 29.17 279.2-.35 256 0c-23.2-.35-56.59 29.17-73.41 41.44-3.17 2.3-6 4.36-9.04 6.56H96c-26.51 0-48 21.49-48 48v44.14c-12.37 9.33-20.76 15.87-29.61 22.81A47.995 47.995 0 000 200.72v10.65l96 69.35V96h320v184.72l96-69.35v-10.65c0-14.74-6.78-28.67-18.39-37.77z"/></svg><svg viewBox="0 0 8.13 15.44" id="facebook-icon" xmlns="http://www.w3.org/2000/svg"><path data-name="Path 1" class="hcls-1" d="M6.1 0c.41 0 .83.03 1.24.05.27.01.54.04.79.07l-.02 2.49h-.2c-.27 0-.54-.01-.82-.01-.2 0-.4.01-.61.01A1.041 1.041 0 005.3 3.7c-.02.6-.03 1.9-.03 1.97.03 0 .68.01 1.34.01.32 0 .64 0 .87-.01h.53c-.13.96-.26 1.87-.39 2.8H5.27l-.06 6.97H2.32l.06-6.99H.01l.02-2.77h2.38v-.21c.01-.56 0-1.12.02-1.68a7.581 7.581 0 01.09-1.06A3.145 3.145 0 013.79.65 3.6 3.6 0 015.87.01c.08 0 .15-.01.23-.01z"/></svg><svg viewBox="0 0 22 18" id="favorit-icon" xmlns="http://www.w3.org/2000/svg"><defs><style>.icls-1{fill:#a3bbc8;fill-rule:evenodd}</style></defs><path id="iForma_1" data-name="Forma 1" class="icls-1" d="M882.99 1569.82a6.208 6.208 0 00-1.849-4.1A5.871 5.871 0 00877 1564c-2.311 0-3.948 1.78-4.827 2.74a2.156 2.156 0 01-.156.17l-.083-.09c-.8-.92-2.476-2.82-4.938-2.82a5.873 5.873 0 00-4.139 1.72 6.208 6.208 0 00-1.849 4.1 6.845 6.845 0 001.271 4.34 29.307 29.307 0 004.763 4.75c1.705 1.41 3.95 3.09 4.965 3.09 1.032 0 3.269-1.68 4.965-3.09a29.234 29.234 0 004.746-4.75 6.935 6.935 0 001.272-4.34zm-2.376 3.61a27 27 0 01-4.431 4.42c-2.406 2-3.831 2.79-4.172 2.82-.342-.03-1.77-.83-4.188-2.84a26.78 26.78 0 01-4.437-4.4 5.6 5.6 0 01-1.054-3.54 4.807 4.807 0 014.666-4.57c1.863 0 3.216 1.54 3.943 2.37a1.52 1.52 0 001.059.76 1.731 1.731 0 001.151-.81c.794-.87 2.122-2.32 3.851-2.32a4.807 4.807 0 014.666 4.57 5.528 5.528 0 01-1.054 3.54z" transform="translate(-861 -1564)"/></svg><svg aria-hidden="true" data-prefix="fas" data-icon="filter" class="jsvg-inline--fa jfa-filter jfa-w-16" viewBox="0 0 512 512" id="filter-solid" xmlns="http://www.w3.org/2000/svg"><path d="M487.976 0H24.028C2.71 0-8.047 25.866 7.058 40.971L192 225.941V432c0 7.831 3.821 15.17 10.237 19.662l80 55.98C298.02 518.69 320 507.493 320 487.98V225.941l184.947-184.97C520.021 25.896 509.338 0 487.976 0z"/></svg><svg viewBox="0 0 18.03 11.41" id="google__plus-icon" xmlns="http://www.w3.org/2000/svg"><path data-name="Union 1" class="kcls-1" d="M5.36 11.39A5.653 5.653 0 01.12 6.9a5.314 5.314 0 01-.11-1.54A5.573 5.573 0 011.3 2.11 5.683 5.683 0 014.37.15a4.271 4.271 0 01.94-.14c.18-.01.36-.02.55-.02a5.311 5.311 0 012.69.74 6.276 6.276 0 011.01.74c-.57.56-1.11 1.11-1.67 1.66a3.053 3.053 0 00-1.67-.81 4.051 4.051 0 00-.48-.04 3.429 3.429 0 00-3.29 2.67 2.977 2.977 0 00-.08 1.03A3.429 3.429 0 004.7 8.95a3.365 3.365 0 001 .15c.08 0 .15-.01.23-.01a3.427 3.427 0 001.67-.53 2.65 2.65 0 001.13-1.72H5.68c0-.08.01-1.5.01-2.2l.01-.09h5.36a6.171 6.171 0 01-1.01 4.81 5.029 5.029 0 01-2.82 1.84 6.2 6.2 0 01-1.54.2c-.11 0-.22-.01-.33-.01zm10.59-3.22h-1.51v-.06l.02-1.93h-1.99v-.06l.01-1.44v-.06h1.99l.01-1.93.01-.06h1.55v.06l-.01 1.93h1.99v.06l-.01 1.44v.06h-1.99L16 8.11v.06h-.05z"/></svg><svg viewBox="0 0 15 15" id="grid-icon" xmlns="http://www.w3.org/2000/svg"><path d="M0 3.75h3.75V0H0v3.75zM5.625 15h3.75v-3.75h-3.75V15zM0 15h3.75v-3.75H0V15zm0-5.625h3.75v-3.75H0v3.75zm5.625 0h3.75v-3.75h-3.75v3.75zM11.25 0v3.75H15V0h-3.75zM5.625 3.75h3.75V0h-3.75v3.75zm5.625 5.625H15v-3.75h-3.75v3.75zm0 5.625H15v-3.75h-3.75V15z"/></svg><svg viewBox="0 0 18 17" id="heart" xmlns="http://www.w3.org/2000/svg"><path d="M8.913 16.244a.707.707 0 01-.28-.056c-.353-.15-8.65-3.75-8.65-10.76C.074 2.779 2.19.722 4.801.722c1.743 0 3.266.918 4.112 2.31a4.796 4.796 0 014.112-2.31c2.61 0 4.725 2.058 4.817 4.684 0 7.034-8.297 10.634-8.65 10.783a.71.71 0 01-.28.056zM4.8 2.106c-1.847 0-3.343 1.47-3.408 3.346 0 5.408 6.125 8.663 7.52 9.335 1.395-.672 7.52-3.93 7.52-9.358-.065-1.853-1.563-3.323-3.408-3.323s-3.342 1.47-3.408 3.346a.7.7 0 01-.704.67.7.7 0 01-.705-.67C8.143 3.576 6.646 2.106 4.8 2.106z"/></svg><svg viewBox="0 0 13.62 13.66" id="insta-icon" xmlns="http://www.w3.org/2000/svg"><path data-name="Union 2" class="ncls-1" d="M2.84 13.46a3.431 3.431 0 01-2.72-2.98 38.588 38.588 0 01.13-7.67A3.483 3.483 0 013.23.16 27.381 27.381 0 016.65.01c1.28 0 2.56.03 3.33.07a3.78 3.78 0 012.5 1.02 3.638 3.638 0 011.09 2.33 43.2 43.2 0 01-.15 7.35 3.485 3.485 0 01-3.02 2.73 32.586 32.586 0 01-3.76.15 23.5 23.5 0 01-3.8-.2zm.73-12.12A2.349 2.349 0 001.39 3.4a45.652 45.652 0 00-.05 6.9 2.224 2.224 0 001.69 1.93 20.971 20.971 0 003.67.2c1.43 0 2.84-.05 3.37-.1a2.341 2.341 0 002.18-2.07 48.648 48.648 0 00.09-6.71 2.3 2.3 0 00-2.05-2.18 30.906 30.906 0 00-3.41-.13c-1.36 0-2.72.04-3.31.1zm-.25 5.5a3.517 3.517 0 013.53-3.5 3.459 3.459 0 013.47 3.5 3.53 3.53 0 01-3.53 3.5 3.466 3.466 0 01-3.47-3.5zm1.23-.03A2.252 2.252 0 006.78 9.1h.02a2.284 2.284 0 002.28-2.24 2.237 2.237 0 00-2.22-2.29h-.02a2.293 2.293 0 00-2.29 2.24zM9.67 3.2a.824.824 0 01.82-.82h.01a.815.815 0 01.81.82.826.826 0 01-.83.82.815.815 0 01-.81-.82z"/></svg><svg viewBox="0 0 20 15" id="list-icon" xmlns="http://www.w3.org/2000/svg"><path d="M.007 0h4.422v4.172H.007V0zm5.828 0h14.159v4.172H5.835V0zM.007 5.413h4.422v4.172H.007V5.413zm5.828 0h14.159v4.172H5.835V5.413zM.007 10.827h4.422V15H.007v-4.171zm5.828 0h14.159V15H5.835v-4.171z"/></svg><svg viewBox="0 0 17.03 17" id="magnifier" xmlns="http://www.w3.org/2000/svg"><path class="pcls-1" d="M16.44 17.014a.6.6 0 01-.42-.174l-5.3-5.3a6.515 6.515 0 11.84-.839l5.3 5.3a.6.6 0 010 .839.6.6 0 01-.42.174zM6.54 1.181a5.344 5.344 0 105.35 5.344 5.351 5.351 0 00-5.35-5.344z"/></svg><svg aria-hidden="true" data-prefix="fas" data-icon="map-marker-alt" class="qsvg-inline--fa qfa-map-marker-alt qfa-w-12" viewBox="0 0 384 512" id="map-marker" xmlns="http://www.w3.org/2000/svg"><path d="M172.268 501.67C26.97 291.031 0 269.413 0 192 0 85.961 85.961 0 192 0s192 85.961 192 192c0 77.413-26.97 99.031-172.268 309.67-9.535 13.774-29.93 13.773-39.464 0zM192 272c44.183 0 80-35.817 80-80s-35.817-80-80-80-80 35.817-80 80 35.817 80 80 80z"/></svg><svg aria-hidden="true" data-prefix="fas" data-icon="phone" class="rsvg-inline--fa rfa-phone rfa-w-16" viewBox="0 0 512 512" id="phone-icon" xmlns="http://www.w3.org/2000/svg"><path d="M493.4 24.6l-104-24c-11.3-2.6-22.9 3.3-27.5 13.9l-48 112c-4.2 9.8-1.4 21.3 6.9 28l60.6 49.6c-36 76.7-98.9 140.5-177.2 177.2l-49.6-60.6c-6.8-8.3-18.2-11.1-28-6.9l-112 48C3.9 366.5-2 378.1.6 389.4l24 104C27.1 504.2 36.7 512 48 512c256.1 0 464-207.5 464-464 0-11.2-7.7-20.9-18.6-23.4z"/></svg><svg viewBox="0 0 22 25" id="play-btn" xmlns="http://www.w3.org/2000/svg"><defs><style>.scls-1{fill:#fff;fill-rule:evenodd}</style></defs><path id="sForm_24" data-name="Form 24" class="scls-1" d="M970.684 3900.74l-16.044 9.8a3.228 3.228 0 01-3.062.14 2.685 2.685 0 01-1.579-2.39v-19.59a2.685 2.685 0 011.579-2.39 3.258 3.258 0 013.062.15l16.044 9.79a2.666 2.666 0 011.316 2.25 2.638 2.638 0 01-1.316 2.24z" transform="translate(-950 -3886)"/></svg><svg viewBox="0 0 8 9" id="post-date" xmlns="http://www.w3.org/2000/svg"><path d="M0 8.156A.85.85 0 00.855 9h6.29A.85.85 0 008 8.156V3.375H0zm5.715-3.445c0-.117.098-.211.215-.211h.715a.21.21 0 01.21.21v.704a.21.21 0 01-.21.211H5.93a.213.213 0 01-.215-.21zm0 2.25c0-.117.098-.211.215-.211h.715a.21.21 0 01.21.21v.704a.21.21 0 01-.21.211H5.93a.213.213 0 01-.215-.21zM3.43 4.71a.21.21 0 01.215-.211h.71a.21.21 0 01.215.21v.704a.21.21 0 01-.215.211h-.71a.21.21 0 01-.215-.21zm0 2.25a.21.21 0 01.215-.211h.71a.21.21 0 01.215.21v.704a.21.21 0 01-.215.211h-.71a.21.21 0 01-.215-.21zM1.145 4.71a.21.21 0 01.21-.211h.715c.118 0 .215.094.215.21v.704c0 .117-.098.211-.215.211h-.715a.21.21 0 01-.21-.21zm0 2.25a.21.21 0 01.21-.211h.715c.118 0 .215.094.215.21v.704c0 .117-.098.211-.215.211h-.715a.21.21 0 01-.21-.21zm6-5.836h-.86V.281A.283.283 0 006 0h-.57a.281.281 0 00-.285.281v.844h-2.29V.281A.281.281 0 002.57 0H2a.283.283 0 00-.285.281v.844h-.86A.85.85 0 000 1.969v.843h8V1.97a.85.85 0 00-.855-.844zm0 0"/></svg><svg viewBox="0 0 15 13" id="reply" xmlns="http://www.w3.org/2000/svg"><path class="ucls-1" d="M5.835 3.48V.01L0 6.08l5.834 6.07V8.59c4.167 0 7.084 1.39 9.167 4.42-.832-4.33-3.333-8.66-9.166-9.53z"/></svg><svg viewBox="0 0 15.28 15.281" id="search" xmlns="http://www.w3.org/2000/svg"><path d="M2.98 6.076a.617.617 0 01.75.485 2.583 2.583 0 00.78 1.489A3.036 3.036 0 006 8.827a.636.636 0 01.49.743.649.649 0 01-.72.515 4.21 4.21 0 01-2.14-1.13A4.164 4.164 0 012.5 6.819a.6.6 0 01.48-.743zM6.26 0a6.267 6.267 0 016.28 6.257 6.136 6.136 0 01-.57 2.6l2.34 2.036c1.7 1.746.74 3.266.29 3.717-.42.454-1.99 1.414-3.73-.292l-2.06-2.35A6.261 6.261 0 116.26 0zm5.55 13.517a1.352 1.352 0 001.88.226 1.313 1.313 0 00-.23-1.874l-2.16-1.88a6.236 6.236 0 01-1.37 1.34zm-5.55-2.312a4.948 4.948 0 10-4.97-4.948A4.963 4.963 0 006.26 11.2z"/></svg><svg aria-hidden="true" data-prefix="fas" data-icon="star" class="wsvg-inline--fa wfa-star wfa-w-18" viewBox="0 0 576 512" id="star-solid" xmlns="http://www.w3.org/2000/svg"><path d="M259.3 17.8L194 150.2 47.9 171.5c-26.2 3.8-36.7 36.1-17.7 54.6l105.7 103-25 145.5c-4.5 26.3 23.2 46 46.4 33.7L288 439.6l130.7 68.7c23.2 12.2 50.9-7.4 46.4-33.7l-25-145.5 105.7-103c19-18.5 8.5-50.8-17.7-54.6L382 150.2 316.7 17.8c-11.7-23.6-45.6-23.9-57.4 0z"/></svg><svg viewBox="0 0 14.31 11.62" id="twitter-icon" xmlns="http://www.w3.org/2000/svg"><path data-name="Path 2" class="xcls-1" d="M14.31 1.4c-.11.16-.21.3-.33.45a5.7 5.7 0 01-1.07 1.01l-.05.09a8.22 8.22 0 01-.07 1.31 8.818 8.818 0 01-.77 2.61 8.712 8.712 0 01-1.6 2.3 7.864 7.864 0 01-4.05 2.25 8.967 8.967 0 01-1.64.2h-.26a8.172 8.172 0 01-4.42-1.27l-.07-.04a5.322 5.322 0 00.69.04 6.049 6.049 0 002.25-.44 5.834 5.834 0 001.4-.82 2.9 2.9 0 01-2.71-2.03 3.287 3.287 0 00.54.05 2.82 2.82 0 00.71-.09L2.91 7A2.9 2.9 0 01.59 4.1a2.914 2.914 0 001.31.35A2.914 2.914 0 01.7 2.67 2.877 2.877 0 011.04.55a8.311 8.311 0 006.02 3.07c-.02-.12-.03-.22-.05-.33a2.8 2.8 0 01.45-1.91A2.853 2.853 0 019.45.05a3.439 3.439 0 01.54-.04 2.833 2.833 0 012.03.86.139.139 0 00.1.05.09.09 0 00.05-.01 5.547 5.547 0 001.71-.65l.04-.02a2.919 2.919 0 01-1.25 1.6 5.859 5.859 0 001.64-.44z"/></svg><svg viewBox="0 0 20 20" id="view-icon" xmlns="http://www.w3.org/2000/svg"><defs><style>.ycls-1{fill:#a3bbc8;fill-rule:evenodd}</style></defs><path id="yForma_1" data-name="Forma 1" class="ycls-1" d="M759.45 1579.8l-4.588-4.59a8.827 8.827 0 01-2.651 2.65l4.588 4.59a1.874 1.874 0 002.651-2.65zm-4.45-9.3a7.5 7.5 0 10-7.5 7.5 7.5 7.5 0 007.5-7.5zm-7.5 5.62a5.625 5.625 0 115.625-5.62 5.628 5.628 0 01-5.625 5.62zm-4.375-5.62h1.25a3.135 3.135 0 013.125-3.13v-1.25a4.386 4.386 0 00-4.375 4.38z" transform="translate(-740 -1563)"/></svg></svg>